<?xml version="1.0" encoding="UTF-8"?>
<!DOCTYPE svg PUBLIC "-//W3C//DTD SVG 1.1//EN" "http://www.w3.org/Graphics/SVG/1.1/DTD/svg11.dtd">
<!-- Creator: CorelDRAW X7 -->
<svg xmlns="http://www.w3.org/2000/svg" xml:space="preserve" width="151px" height="94px" version="1.1" style="shape-rendering:geometricPrecision; text-rendering:geometricPrecision; image-rendering:optimizeQuality; fill-rule:evenodd; clip-rule:evenodd"
viewBox="0 0 151 94"
 xmlns:xlink="http://www.w3.org/1999/xlink">
 <defs>
  <style type="text/css">
   <![CDATA[
    .fil25 {fill:#B6B6B7;fill-rule:nonzero}
    .fil23 {fill:#A1A1A1;fill-rule:nonzero}
    .fil24 {fill:#8B8B8C;fill-rule:nonzero}
    .fil16 {fill:#5F5D5D;fill-rule:nonzero}
    .fil20 {fill:#474443;fill-rule:nonzero}
    .fil7 {fill:#07345A;fill-rule:nonzero}
    .fil28 {fill:#182E38;fill-rule:nonzero}
    .fil11 {fill:#183658;fill-rule:nonzero}
    .fil12 {fill:#184655;fill-rule:nonzero}
    .fil17 {fill:#1A1A1A;fill-rule:nonzero}
    .fil31 {fill:#355389;fill-rule:nonzero}
    .fil1 {fill:#3C8F7C;fill-rule:nonzero}
    .fil32 {fill:#466EB6;fill-rule:nonzero}
    .fil3 {fill:#50BFA5;fill-rule:nonzero}
    .fil2 {fill:#96D9C9;fill-rule:nonzero}
    .fil18 {fill:#9E9DA2;fill-rule:nonzero}
    .fil10 {fill:#C0DDE3;fill-rule:nonzero}
    .fil27 {fill:#C6CB99;fill-rule:nonzero}
    .fil14 {fill:#C7EEF1;fill-rule:nonzero}
    .fil21 {fill:#CF283C;fill-rule:nonzero}
    .fil19 {fill:#D8D9DD;fill-rule:nonzero}
    .fil15 {fill:#D8F0F3;fill-rule:nonzero}
    .fil13 {fill:#E0877A;fill-rule:nonzero}
    .fil8 {fill:#E25A44;fill-rule:nonzero}
    .fil29 {fill:#E5C99D;fill-rule:nonzero}
    .fil0 {fill:#E6EBF7;fill-rule:nonzero}
    .fil26 {fill:#E9D7A0;fill-rule:nonzero}
    .fil9 {fill:#EAFCFC;fill-rule:nonzero}
    .fil22 {fill:#F3FCFF;fill-rule:nonzero}
    .fil34 {fill:#F47458;fill-rule:nonzero}
    .fil5 {fill:#F48C7F;fill-rule:nonzero}
    .fil30 {fill:#F7A491;fill-rule:nonzero}
    .fil6 {fill:#F7CC7F;fill-rule:nonzero}
    .fil33 {fill:#F8A492;fill-rule:nonzero}
    .fil4 {fill:white;fill-rule:nonzero}
   ]]>
  </style>
 </defs>
 <g id="Layer_x0020_1">
  <metadata id="CorelCorpID_0Corel-Layer"/>
  <path class="fil0" d="M144 85l-82 0c2,0 4,-2 4,-4 0,0 0,0 0,0l0 0 34 0c1,0 1,-1 1,-2 0,0 0,0 0,0 0,0 0,0 0,-1 4,0 12,0 16,0 0,0 0,0 0,1 0,0 0,0 0,0 0,0 0,0 0,0 0,0 0,0 0,0 0,0 0,0 0,0 0,1 0,1 1,1l6 0c1,0 2,-1 2,-2l0 -1c0,-1 0,-1 0,-1l0 -3c0,-1 0,-2 0,-2 -1,-4 -3,-5 -9,-6 -6,-2 -15,-6 -15,-6 0,0 -14,-7 -17,-8 -2,0 -6,0 -11,0 -2,0 -5,0 -8,0l0 -25 2 0 0 11 2 0 0 3 2 0 0 8 2 0 0 -24 1 0 0 -3 10 0 0 3 1 0 0 18 3 0 0 -12 9 0 0 21 2 0 0 -7 3 0 0 -5 1 0 0 -4 7 0 0 4 2 0 0 5 3 0 0 13 2 0 0 -13 9 0 0 15 5 0 0 -7 6 0 0 14 6 0 0 19z"/>
  <path class="fil1" d="M36 85c0,0 -4,-18 -5,-20 -1,-2 -2,0 -3,2 0,1 -1,3 -1,2 -1,-6 -1,-15 -5,-16 -3,0 0,6 0,8 -1,2 -5,-4 -8,-8 -3,-3 -4,-1 -3,3 2,4 7,8 6,9 -1,0 -2,-1 -4,-2 -2,-1 -5,-2 -5,-1 -1,2 9,7 8,7 0,0 -1,0 -2,0 -2,-1 -4,-1 -4,0 0,2 7,3 7,4 0,0 -1,0 -2,-1 -2,0 -3,-1 -3,0 -1,2 6,2 6,4 -1,1 -2,0 -2,1 -1,3 9,7 9,7l11 1z"/>
  <path class="fil2" d="M41 85c-2,-2 -9,-11 -14,-12 -5,-2 0,5 0,5 0,0 -9,-10 -12,-9 -3,0 0,6 0,6 0,0 -4,-3 -8,-3 -4,0 3,12 4,13l30 0z"/>
  <path class="fil3" d="M9 78c0,1 0,1 0,2 0,0 1,0 1,0 0,0 -1,0 -1,0 -1,-1 -1,-1 -1,-2 0,0 1,-1 1,0 0,0 0,0 0,0z"/>
  <path class="fil3" d="M13 80c0,0 0,0 0,1 0,0 0,1 0,1 0,0 -1,-1 -1,-1 0,0 0,-1 0,-1 0,-1 0,-1 0,-1 1,0 1,0 1,1z"/>
  <path class="fil3" d="M16 81c0,0 0,1 0,1 0,1 0,1 0,1 0,0 0,0 -1,-1 0,0 0,-1 0,-1 0,-1 1,-1 1,-1 0,0 0,1 0,1z"/>
  <path class="fil3" d="M8 82c1,-1 1,-1 1,-1 0,-1 1,-1 1,-1 0,0 -1,0 -1,0 -1,0 -1,1 -1,1 -1,1 0,1 0,1 0,0 0,0 0,0z"/>
  <path class="fil3" d="M12 83c0,0 0,-1 0,-1 1,0 1,0 1,0 0,0 0,-1 -1,-1 0,1 -1,1 -1,1 0,1 0,1 0,1 0,0 1,0 1,0z"/>
  <path class="fil3" d="M6 79c0,0 0,0 0,0 0,1 1,1 1,1 0,0 -1,0 -1,0 0,-1 0,-1 0,-1 0,-1 0,-1 0,-1 0,0 0,0 0,1z"/>
  <path class="fil3" d="M6 80c0,0 0,0 0,0 0,0 1,0 1,0 0,0 -1,-1 -1,-1 0,0 -1,1 -1,1 0,0 0,0 0,0 0,1 1,0 1,0z"/>
  <path class="fil3" d="M13 66c4,5 7,12 8,19l1 0c-2,-7 -5,-13 -8,-19 -1,-1 -2,-3 -4,-4 0,0 0,0 0,1 2,0 2,2 3,3z"/>
  <path class="fil3" d="M20 85c-4,-6 -9,-11 -15,-15 0,0 0,0 0,0 6,4 11,9 15,15l0 0z"/>
  <path class="fil3" d="M13 62c0,0 -1,1 -1,1 0,1 0,1 0,1 0,0 0,0 0,-1 0,0 0,-1 0,-1 0,-1 1,-1 1,-1 0,1 0,1 0,1z"/>
  <path class="fil3" d="M12 67c0,0 1,0 1,0 0,0 1,0 1,0 0,0 0,-1 -1,-1 -1,0 -1,0 -2,0 0,1 0,1 0,2 0,0 1,0 1,-1z"/>
  <path class="fil3" d="M13 70c1,-1 1,-1 1,-1 1,0 1,0 1,0 0,0 0,0 -1,-1 0,0 -1,0 -1,1 -1,0 -1,1 -1,1 1,0 1,0 1,0z"/>
  <path class="fil3" d="M9 75c0,0 0,-1 1,-1 0,0 1,0 1,0 0,0 -1,0 -1,0 -1,-1 -2,0 -2,0 -1,0 -1,1 0,1 0,0 0,0 1,0z"/>
  <path class="fil3" d="M6 73c0,0 1,-1 1,-1 1,0 1,0 1,0 0,0 0,0 -1,-1 0,0 -1,0 -1,1 -1,0 -1,1 -1,1 1,0 1,0 1,0z"/>
  <path class="fil3" d="M15 65c0,0 -1,0 -1,1 0,0 0,1 0,1 0,0 0,-1 0,-1 -1,-1 0,-2 0,-2 0,-1 1,0 1,0 0,0 0,0 0,1z"/>
  <path class="fil3" d="M17 67c0,0 -1,1 -1,1 -1,0 -1,1 -1,1 0,0 0,-1 0,-1 0,-1 0,-2 1,-2 0,0 1,0 1,0 0,1 0,1 0,1z"/>
  <path class="fil3" d="M19 71c0,0 -1,0 -1,1 -1,0 -1,1 -1,1 0,0 0,-1 0,-2 0,-1 1,-1 1,-1 1,-1 1,0 1,0 0,1 0,1 0,1z"/>
  <path class="fil3" d="M13 74c0,0 -1,0 -1,0 0,1 0,1 0,1 0,0 -1,0 -1,-1 0,0 1,-1 1,-1 0,0 1,0 1,0 0,0 0,1 0,1z"/>
  <path class="fil3" d="M10 63c0,0 0,0 0,0 0,0 1,0 1,0 0,0 -1,-1 -1,-1 0,0 -1,0 -1,1 0,0 0,0 0,0 0,0 0,0 1,0z"/>
  <path class="fil3" d="M10 62c0,0 0,0 0,0 0,0 1,1 1,1 0,0 -1,0 -1,-1 0,0 0,0 0,0 0,-1 0,-1 0,-1 0,0 0,0 0,1z"/>
  <path class="fil3" d="M5 70c0,0 0,0 0,0 0,0 1,0 1,0 0,0 -1,0 -1,0 0,0 -1,0 -1,0 0,0 0,1 0,1 0,0 0,0 1,-1z"/>
  <path class="fil3" d="M5 69c0,0 0,0 0,0 0,1 1,1 1,1 0,0 -1,0 -1,0 0,-1 0,-1 0,-1 0,-1 0,-1 0,-1 0,0 0,1 0,1z"/>
  <path class="fil3" d="M6 80c1,0 2,0 3,0 2,1 4,1 6,2 0,0 1,1 2,1 1,0 1,1 1,1 1,0 2,1 2,1l-1 0c0,0 -1,-1 -2,-2 -4,-1 -7,-3 -11,-3 0,0 0,0 0,0z"/>
  <path class="fil2" d="M47 85c0,-1 1,-2 1,-3 0,-2 -3,-1 -3,-2 0,-2 9,-1 9,-4 -1,-1 -2,-1 -4,0 -2,0 -3,1 -3,0 -1,-1 9,-1 9,-4 0,-1 -2,-1 -5,0 -1,0 -3,0 -3,0 -1,-1 13,-6 12,-9 -1,-1 -4,0 -7,1 -3,1 -5,2 -6,2 -2,-1 6,-6 9,-11 2,-5 0,-8 -4,-3 -4,4 -10,11 -11,9 0,-2 5,-11 1,-10 -6,1 -7,11 -9,20 0,0 -1,-2 -1,-4 -1,-2 -3,-4 -4,-3 -1,2 1,14 3,21l16 0z"/>
  <path class="fil4" d="M81 34c0,2 -2,3 -4,3 -1,0 -3,-1 -3,-3 0,-2 2,-4 3,-4 2,0 4,2 4,4z"/>
  <path class="fil5" d="M107 30c0,0 1,1 2,1 1,0 1,-1 2,-2 0,-1 -1,-1 -2,-1 -1,0 -1,0 -1,1 0,1 1,1 1,1 0,0 0,-1 0,-1 0,0 0,0 0,0 0,0 -1,0 -1,-1 1,0 1,0 2,0 0,0 0,1 0,2 0,0 -1,1 -1,1 -1,0 -1,-1 -2,-1 0,-1 0,-1 0,0z"/>
  <path class="fil5" d="M122 27l1 -2 -1 -1c0,0 0,0 0,0l2 0 0 -1c1,0 1,0 1,0l0 2 1 0c0,0 0,0 0,0l-1 1 0 1c0,1 0,1 0,1l-1 -1 -2 0c0,0 0,0 0,0z"/>
  <path class="fil6" d="M70 18l0 -1 0 -1c0,0 0,0 0,0l1 0 0 -1c1,0 1,0 1,0l0 1 1 1c0,0 0,0 0,0l-1 0 0 1c0,0 0,1 0,0l-1 0 -1 0c0,0 0,0 0,0z"/>
  <polygon class="fil3" points="132,38 132,37 134,37 135,36 137,36 137,35 135,35 134,36 132,36 131,37 "/>
  <polygon class="fil7" points="83,14 82,14 83,12 82,11 82,9 81,9 81,11 82,12 81,14 83,15 "/>
  <path class="fil3" d="M100 21l0 -1 -1 -1 0 1 1 1zm-3 1l1 -2 -1 0c0,0 0,0 0,0 0,0 0,0 0,0l1 0 1 -1 -1 0c0,0 0,-1 0,-1 0,0 0,0 0,0l1 0 1 -1c0,0 0,0 0,0l0 0c0,0 0,0 0,0l0 2 1 0 1 -1c0,0 0,0 0,0l0 0c0,0 0,0 0,0l-1 1 1 1c0,0 0,0 0,0 0,0 0,0 0,0l-1 0 -1 1 1 0c0,0 0,0 0,1 0,0 0,0 0,0l-1 -1 -1 2c0,0 0,0 0,0l0 0c0,0 0,0 0,-1l0 -1 -1 0 0 1c-1,0 -1,0 -1,0l0 0c0,0 0,0 0,0z"/>
  <path class="fil8" d="M63 9l0 0 0 0c0,0 0,0 0,0 0,0 0,-1 0,-1 0,0 0,0 0,0 0,0 0,0 0,0 0,0 0,0 0,0 0,0 0,0 -1,0 0,0 0,0 0,0 0,0 0,0 0,0 0,0 0,0 0,0 0,0 0,0 0,0 0,0 0,0 0,0 0,0 0,0 0,0l-33 0c0,0 0,0 -1,0 0,0 0,0 0,0 0,0 0,0 0,0 -2,1 -4,2 -4,4 0,1 0,1 0,1l0 68c0,2 1,3 3,4 0,0 0,0 0,0 0,0 0,0 0,0 0,0 1,0 1,0 0,0 0,0 0,0 0,0 0,0 0,0 0,0 0,0 0,0 0,0 0,0 0,0 0,0 0,0 0,0 0,0 0,0 0,0 0,0 0,0 0,0 0,0 0,0 0,0 0,0 0,0 0,0 1,0 1,0 1,0l33 0c0,0 0,0 0,0 2,0 4,-2 4,-4 0,0 0,0 0,0l0 -68c0,-2 -1,-4 -3,-4z"/>
  <polygon class="fil9" points="26,79 64,79 64,14 26,14 "/>
  <path class="fil4" d="M59 55c-2,2 -4,5 -6,7l-11 -6 11 -5 6 4zm-3 10l-3 8 -20 -8 1 -5 6 -3 16 8zm-23 -14l0 -7 11 0 6 6 -11 5 -6 -4zm-4 -8l5 -7 10 0 0 7 -15 0zm7 -19l13 5 0 5 -13 0 0 -10zm15 12l0 13 -6 -6 0 -7 6 0zm13 6l-11 -1 0 -7 -3 0 0 -4 14 6 0 -1 -4 -2 -1 -19 -1 0 0 18 -8 -3 0 0 0 0 -2 -1 0 -14 -1 0 0 13 -11 -5 0 -8 -2 0 0 7 -8 -3 0 2 8 3 0 7 -8 -4 0 2 8 3 0 4 -7 8 -1 0 0 1 6 0 0 8 6 3 -6 3 -6 -4 0 2 5 3 0 0 -1 20 2 0 1 -12 10 3 -1 9 1 0 1 -8 9 3 -2 5 2 0 1 -5 10 4 0 -1 -10 -4 3 -8 -3 -2c1,-2 4,-5 6,-8 2,-2 3,-4 4,-5l0 -2c-1,2 -3,4 -4,6l-6 -4 -1 -8 11 1 0 -1z"/>
  <polygon class="fil10" points="54,74 32,66 32,59 51,50 44,44 44,35 34,35 34,28 35,28 35,34 45,35 45,43 53,51 33,59 32,65 54,73 "/>
  <path class="fil11" d="M34 24c0,0 0,-1 1,-1 0,0 1,1 1,1 0,1 -1,1 -1,1 -1,0 -1,0 -1,-1zm-1 1l2 4 2 -4c0,-1 -1,-3 -2,-3 0,0 0,0 0,0 0,0 0,0 0,0 -2,0 -3,1 -2,3z"/>
  <path class="fil12" d="M53 69c0,-1 0,-1 1,-1 0,0 1,0 1,1 0,1 -1,1 -1,1 -1,0 -1,0 -1,-1zm-1 1l2 4 2 -4c1,-2 0,-3 -2,-3 0,0 0,0 0,0 0,0 0,0 0,0 -2,0 -3,1 -2,3z"/>
  <path class="fil4" d="M53 12l-16 0c0,0 0,0 0,0l0 0c0,0 0,0 0,0l16 0c0,0 0,0 0,0l0 0c0,0 0,0 0,0z"/>
  <path class="fil13" d="M45 84c-1,0 -2,-1 -2,-2 0,-1 1,-2 2,-2 1,0 2,1 2,2 0,1 -1,2 -2,2z"/>
  <path class="fil14" d="M60 79l-7 0 0 -1c3,0 6,0 7,1 0,0 0,0 0,0zm-9 0l-8 0 0 -2 0 0c0,0 0,0 0,0 1,0 1,0 1,0l0 0c0,0 0,0 0,0 0,0 0,0 0,0 0,0 0,0 0,0 0,0 0,-1 0,-1l1 0c2,1 4,1 7,1l-1 2zm-9 0l-10 0 1 -3 6 0 3 1 0 2zm-12 0l-4 0 0 -3 4 0 0 3z"/>
  <path class="fil15" d="M53 79l-2 0 1 -2c0,0 1,0 1,1l0 1zm-10 0l-1 0 0 -2 1 0 0 2zm-11 0l-2 0 0 -3 3 0 -1 3z"/>
  <path class="fil14" d="M64 18l-5 0 0 -4 5 0 0 4zm-6 0l-10 0 0 -4 10 0 0 4zm-11 0l-11 0 0 -4 11 0 0 4zm-13 0l-8 0 0 -4 8 0 0 4z"/>
  <path class="fil15" d="M59 18l-1 0 0 -4 1 0 0 4zm-11 0l-1 0 0 -4 1 0 0 4zm-12 0l-2 0 0 -4 2 0 0 4z"/>
  <path class="fil16" d="M116 44l-14 0c-1,0 -1,0 -1,1l0 5c0,1 0,1 1,1l11 0c0,1 1,2 1,2 0,0 0,-1 0,-2l2 0c0,0 1,0 1,-1l0 -5c0,-1 -1,-1 -1,-1z"/>
  <path class="fil4" d="M107 46l-4 0c0,0 0,0 0,0l0 0c0,0 0,0 0,0l4 0c0,0 0,0 0,0l0 0c0,0 0,0 0,0z"/>
  <path class="fil4" d="M106 48l-3 0c0,0 0,0 0,0l0 0c0,-1 0,-1 0,-1l3 0c0,0 0,0 0,1l0 0c0,0 0,0 0,0z"/>
  <path class="fil4" d="M109 48l-2 0c0,0 -1,0 -1,0l0 0c0,-1 1,-1 1,-1l2 0c1,0 1,0 1,1l0 0c0,0 0,0 -1,0z"/>
  <path class="fil4" d="M115 48l-4 0c0,0 -1,0 -1,0l0 0c0,-1 1,-1 1,-1l4 0c0,0 0,0 0,1l0 0c0,0 0,0 0,0z"/>
  <path class="fil4" d="M115 46l-7 0c0,0 0,0 0,0l0 0c0,0 0,0 0,0l7 0c0,0 0,0 0,0l0 0c0,0 0,0 0,0z"/>
  <path class="fil4" d="M108 49l-5 0c0,0 0,0 0,0l0 0c0,0 0,0 0,0l5 0c0,0 1,0 1,0l0 0c0,0 -1,0 -1,0z"/>
  <path class="fil4" d="M115 49l-6 0c0,0 0,0 0,0l0 0c0,0 0,0 0,0l6 0c0,0 0,0 0,0l0 0c0,0 0,0 0,0z"/>
  <path class="fil11" d="M43 76c0,0 18,3 18,3 1,0 3,-10 3,-10 0,0 -15,-3 -15,-3 0,0 -4,3 -4,3 0,0 -2,7 -2,7z"/>
  <path class="fil11" d="M98 78c0,0 22,0 22,0l-2 -5c0,0 -3,-4 -5,-4 0,0 -2,-1 -4,-1 -3,0 -7,0 -8,0 -2,1 -3,1 -4,3 -1,3 -1,3 -1,5 1,1 2,2 2,2z"/>
  <path class="fil17" d="M45 78c0,4 3,7 7,7 4,0 8,-3 8,-7 0,-4 -4,-8 -8,-8 -4,0 -7,4 -7,8z"/>
  <path class="fil18" d="M47 78c0,3 2,5 5,5 3,0 5,-2 5,-5 0,-3 -2,-5 -5,-5 -3,0 -5,2 -5,5z"/>
  <path class="fil19" d="M49 78c0,2 1,3 3,3 2,0 4,-1 4,-3 0,-2 -2,-4 -4,-4 -2,0 -3,2 -3,4z"/>
  <path class="fil17" d="M102 78c0,4 3,7 7,7 4,0 7,-3 7,-7 0,-4 -3,-8 -7,-8 -4,0 -7,4 -7,8z"/>
  <path class="fil18" d="M104 78c0,3 2,5 5,5 3,0 5,-2 5,-5 0,-3 -2,-5 -5,-5 -3,0 -5,2 -5,5z"/>
  <path class="fil19" d="M105 78c0,2 2,3 4,3 2,0 3,-1 3,-3 0,-2 -1,-4 -3,-4 -2,0 -4,2 -4,4z"/>
  <path class="fil20" d="M126 71c-1,-4 -3,-5 -9,-6 -6,-2 -15,-6 -15,-6 0,0 -14,-7 -17,-8 -4,-1 -12,0 -20,0 -7,0 -11,2 -15,5 -3,2 -10,5 -10,5l-1 0c-1,0 -2,1 -2,2l0 10c0,2 1,3 2,3l4 1c1,0 1,0 1,-1 0,-4 4,-7 8,-7 5,0 9,4 9,8 0,1 -1,1 -1,2 0,0 1,1 1,1l38 0c1,0 2,-1 2,-1 0,-1 0,-1 0,-2 0,-4 3,-8 8,-8 4,0 8,4 8,8 0,1 0,1 0,1 0,1 1,2 2,2l5 0c1,0 2,-1 2,-2l0 -5c0,-1 0,-2 0,-2z"/>
  <path class="fil21" d="M37 64l5 0c0,0 1,1 0,1l0 1c-1,2 -2,2 -3,2l-2 0c0,0 0,0 0,0l0 -3c0,0 0,-1 0,-1z"/>
  <path class="fil22" d="M119 66c2,1 5,3 5,3 1,1 0,2 -1,2l-5 0c-1,0 -2,-1 -2,-2 0,-2 0,-3 3,-3z"/>
  <path class="fil23" d="M37 74c0,0 0,0 0,0 0,1 1,2 2,2l4 1c1,0 1,0 1,0 0,-1 0,-2 1,-3 0,0 0,0 -1,0l-7 0z"/>
  <path class="fil24" d="M117 76c0,0 0,0 0,0 0,1 0,1 0,2 0,0 0,0 0,1 0,1 0,1 1,1l6 0c1,0 2,-1 2,-2l0 -1c0,-1 0,-1 0,-1l-9 0z"/>
  <path class="fil25" d="M100 76l0 0c0,-7 2,-13 2,-14 -1,-1 -8,-5 -13,-7 -5,-2 -9,-2 -11,-2 0,0 0,0 -1,0l0 22 0 0 0 -22c0,0 -2,0 -4,0 -4,0 -12,0 -15,1 -4,1 -9,7 -10,7l2 7c0,0 0,0 1,0 5,0 7,2 9,4 1,1 1,2 1,3l0 0c0,-1 -1,-2 -2,-3 -2,-3 -5,-4 -8,-4 -1,0 -1,0 -2,0l0 0 -1 -7 0 0c0,0 6,-6 10,-8 3,-1 10,-1 15,-1 2,0 4,0 4,0 0,0 1,0 1,0 2,0 6,0 11,2 5,3 13,7 13,7l0 0 0 1c0,0 -2,7 -2,14z"/>
  <path class="fil26" d="M44 76l0 0c0,0 0,0 0,0l0 0c0,0 0,0 0,0z"/>
  <path class="fil27" d="M44 77c0,0 0,0 0,0 0,0 0,0 0,0zm0 0c0,0 0,-1 0,-1l0 0c0,0 0,1 0,1z"/>
  <path class="fil28" d="M44 76l0 0c0,0 0,0 0,0l0 0c0,0 0,0 0,0z"/>
  <path class="fil16" d="M43 77c0,0 0,0 0,0l0 0 -1 0 -3 -1c-1,0 -2,-1 -2,-2l7 2c0,0 0,0 0,0 0,0 0,0 0,0 0,0 0,1 0,1 0,0 0,0 0,0 0,0 0,0 0,0 0,0 0,0 0,0l0 0c0,0 0,0 -1,0z"/>
  <path class="fil29" d="M117 79c0,0 0,0 0,0 0,0 0,0 0,0zm0 0c0,-1 0,-1 0,-1 0,0 0,0 0,0 0,0 0,0 0,1z"/>
  <path class="fil28" d="M117 78c0,0 0,0 0,0l0 0c0,0 0,0 0,0 0,0 0,0 0,0z"/>
  <path class="fil20" d="M124 80l-6 0c-1,0 -1,0 -1,-1 0,0 0,0 0,0 0,0 0,0 0,0 0,0 0,0 0,0 0,0 0,0 0,0 0,-1 0,-1 0,-1 0,0 0,0 0,0l9 0 0 0c0,1 -1,2 -2,2z"/>
  <path class="fil24" d="M101 78c0,0 0,-1 0,-1 0,-1 0,-1 -1,-1l-39 -1c-1,0 -1,0 -1,1 0,0 0,1 0,2 0,0 0,1 0,2 0,0 0,1 1,1l39 0c1,0 1,-1 1,-2 0,0 0,-1 0,-1z"/>
  <path class="fil28" d="M101 78l0 0c0,0 0,0 0,0l0 0c0,0 0,0 0,0z"/>
  <path class="fil20" d="M100 81l-39 0c-1,0 -1,-1 -1,-1 0,0 0,0 0,0 0,-1 0,-2 0,-2l41 0c0,0 0,0 0,0l0 0c0,0 0,1 0,1 0,0 0,0 0,0 0,1 0,2 -1,2z"/>
  <path class="fil25" d="M57 64l-5 0c0,0 -1,0 -1,0l0 0c0,-1 1,-1 1,-1l5 0c0,0 0,0 0,1l0 0c0,0 0,0 0,0z"/>
  <path class="fil25" d="M84 65l-5 0c0,0 0,0 0,-1l0 0c0,0 0,0 0,0l5 0c0,0 0,0 0,0l0 0c0,1 0,1 0,1z"/>
  <path class="fil11" d="M52 62l22 0c0,0 2,0 2,-1 0,-1 0,-7 0,-7 0,0 0,-1 -1,-1 -1,0 -6,0 -11,0 -4,1 -8,3 -11,6l-2 1c0,0 -1,2 1,2z"/>
  <path class="fil11" d="M79 55l0 6c0,0 0,1 1,1l17 1c1,0 1,-1 1,-1 0,0 0,-1 -1,-2 -3,-2 -10,-6 -12,-6 -2,0 -4,0 -5,0 -1,0 -1,0 -1,1z"/>
  <path class="fil11" d="M115 56l0 0c0,0 0,0 0,0l-2 -2c0,0 0,-1 0,-1l0 0c0,0 0,0 0,0l2 3c0,0 0,0 0,0z"/>
  <path class="fil30" d="M122 54c0,0 -2,1 -2,1 0,0 -2,3 -2,3l-2 -2 0 0c0,0 -1,-1 -1,-1 0,0 0,0 0,0 -1,0 0,0 0,0 0,0 0,0 0,0 0,0 -1,0 -1,0 0,0 0,-1 0,-1 -1,0 -1,1 0,1 -1,0 -1,-1 -1,-1 0,0 0,0 0,1 0,0 0,0 0,0 1,1 2,2 2,2 0,0 3,4 3,4 1,0 1,-2 2,-2 1,-1 3,-4 2,-5z"/>
  <path class="fil5" d="M129 82c0,0 0,0 0,0 0,1 0,2 0,2 0,1 -1,1 -1,1 0,0 1,0 2,0 0,0 1,-2 1,-2 0,0 0,-1 0,-1 0,0 0,0 -1,-1 0,0 0,0 0,0l-1 1z"/>
  <path class="fil30" d="M124 83l0 1c0,0 0,1 0,1 0,0 -2,-1 -2,-1 0,0 0,0 0,0 1,-1 0,-1 0,-1l2 0z"/>
  <path class="fil31" d="M119 61c0,0 0,2 0,2 0,4 0,10 0,11 0,2 3,9 3,9l2 0 -2 -9 1 -4 1 -7 -5 -2z"/>
  <path class="fil32" d="M125 63l1 2 1 8 3 8c0,0 0,1 -1,1l-6 -8 -3 -10 0 -2 5 1z"/>
  <path class="fil1" d="M119 56l2 1c0,0 0,-2 0,-3 0,-1 0,-3 0,-3 0,0 -1,0 -1,1 -1,1 -1,4 -1,4z"/>
  <path class="fil3" d="M120 54c0,0 -1,10 -1,10 4,2 7,0 7,0 0,0 0,-7 0,-8 0,0 0,-4 0,-5 -1,0 -1,0 -2,0 0,0 -3,0 -3,0 0,0 -1,1 -1,3z"/>
  <path class="fil3" d="M130 81c0,0 -1,3 -1,3 0,0 -1,1 -1,1 0,0 0,0 0,0l2 0c0,0 1,-1 1,-2 0,0 0,-1 0,-1 0,0 -1,-1 -1,-1z"/>
  <path class="fil3" d="M125 85l-1 -1c0,0 0,0 -1,0 0,0 -1,0 -1,0 -1,0 -2,1 -2,1l5 0z"/>
  <path class="fil30" d="M118 61c0,0 0,0 0,0 0,-1 0,-2 0,-3 0,0 0,0 0,0 1,0 1,1 1,2 0,0 0,0 0,0 0,1 -1,1 -1,1z"/>
  <path class="fil33" d="M130 64c0,0 0,0 0,0 0,-1 0,-7 0,-7 0,0 -3,-4 -3,-4l-1 2 2 3c0,0 1,4 1,4 0,0 0,1 0,1 0,0 0,1 0,1 0,0 0,0 0,0 0,0 0,0 0,1 0,0 0,0 0,0 0,0 0,0 0,0 0,0 0,0 0,0 -1,1 0,1 0,1 0,0 0,0 0,-1 0,0 0,0 0,0 0,0 0,1 0,1 0,0 0,0 0,1 0,0 1,0 1,0 0,-1 0,-2 0,-2 0,0 0,0 0,0 0,0 0,1 0,1 0,1 0,1 0,1 0,-1 0,-2 0,-2 0,0 0,0 0,0 0,0 0,1 0,1 0,0 0,0 0,0 0,0 0,-1 0,-1 0,0 0,0 0,0 0,0 0,1 0,1 0,0 1,0 1,0 0,0 -1,-1 -1,-1 0,0 0,-1 0,-1 0,0 0,0 0,0z"/>
  <path class="fil1" d="M129 56l-2 1c0,0 -1,-2 -2,-2 -1,-1 0,-4 1,-4 1,1 3,5 3,5z"/>
  <path class="fil30" d="M124 49l0 2c0,0 -1,3 -2,2 0,0 0,-2 0,-2 0,0 0,-1 0,-2 0,0 2,0 2,0z"/>
  <path class="fil34" d="M122 49c0,0 2,0 2,0l0 0c0,0 0,0 0,0 -1,1 -1,1 -2,1 0,0 0,-1 0,-1z"/>
  <path class="fil30" d="M124 46c0,0 1,2 0,3 -1,1 -2,1 -2,0 -1,0 -1,-3 0,-3 1,-1 2,0 2,0z"/>
  <path class="fil12" d="M123 44c0,0 1,1 1,1 0,0 1,0 1,1 1,1 0,2 0,3 -1,0 -1,1 -1,1l0 -1c0,0 0,0 0,0 0,0 0,-1 0,-1 0,0 0,0 -1,-1 0,0 0,0 0,-1l0 0c0,0 0,0 -1,0 0,0 0,-2 1,-2z"/>
  <path class="fil30" d="M124 48c0,0 0,0 0,0 0,0 0,0 0,0 0,-1 0,-1 0,-1 0,0 0,0 0,1z"/>
  <path class="fil4" d="M123 48l-1 0c0,0 0,1 0,1 0,0 1,-1 1,-1z"/>
  <path class="fil34" d="M75 34c0,-1 1,-3 2,-2 2,0 3,1 3,2 0,2 -1,3 -3,3 -1,0 -2,-1 -2,-3zm-3 2l5 11 6 -11c1,-3 -1,-8 -5,-8 0,0 0,0 0,0 -1,0 -1,0 -1,0 -4,0 -7,5 -5,8z"/>
  <path class="fil11" d="M145 86l-136 0c-1,0 -1,0 -1,0l0 0c0,-1 0,-1 1,-1l136 0c1,0 1,0 1,1l0 0c0,0 0,0 -1,0z"/>
 </g>
</svg>
